<?xml version="1.0" encoding="utf-8"?>
<!-- Generator: Adobe Illustrator 15.1.0, SVG Export Plug-In . SVG Version: 6.00 Build 0)  -->
<!DOCTYPE svg PUBLIC "-//W3C//DTD SVG 1.1//EN" "http://www.w3.org/Graphics/SVG/1.1/DTD/svg11.dtd">
<svg version="1.1" id="Layer_1" xmlns="http://www.w3.org/2000/svg" xmlns:xlink="http://www.w3.org/1999/xlink" x="0px" y="0px"
	 width="39.8px" height="32px" viewBox="0 0 39.8 32" enable-background="new 0 0 39.8 32" xml:space="preserve">
<g>
	<path fill="#FFFFFF" d="M19.899,10.829c-2.855,0-5.17,2.315-5.17,5.171c0,2.855,2.314,5.171,5.17,5.171
		c2.856,0,5.172-2.315,5.172-5.171C25.071,13.144,22.755,10.829,19.899,10.829"/>
	<path fill="#FFFFFF" d="M35.319,9.604c-0.075-1.651-0.338-2.779-0.721-3.766c-0.396-1.021-0.929-1.885-1.789-2.748
		c-0.863-0.862-1.729-1.393-2.748-1.789c-0.985-0.384-2.115-0.646-3.767-0.721c-1.653-0.075-2.184-0.094-6.396-0.094
		s-4.74,0.019-6.396,0.094c-1.65,0.075-2.777,0.337-3.766,0.721C8.717,1.697,7.852,2.228,6.991,3.09
		C6.128,3.954,5.599,4.818,5.202,5.839C4.817,6.825,4.556,7.953,4.479,9.604C4.405,11.259,4.388,11.787,4.388,16
		s0.018,4.741,0.092,6.396c0.076,1.65,0.338,2.777,0.723,3.766c0.396,1.02,0.926,1.885,1.789,2.747
		c0.861,0.862,1.727,1.393,2.746,1.789c0.988,0.384,2.115,0.646,3.766,0.722c1.656,0.075,2.184,0.094,6.396,0.094
		s4.742-0.019,6.396-0.094c1.649-0.075,2.779-0.338,3.766-0.722c1.02-0.396,1.885-0.927,2.748-1.789
		c0.861-0.862,1.393-1.728,1.789-2.747c0.383-0.987,0.645-2.114,0.721-3.766c0.074-1.655,0.094-2.185,0.094-6.396
		S35.394,11.259,35.319,9.604 M19.899,23.967c-4.398,0-7.965-3.566-7.965-7.967c0-4.4,3.566-7.966,7.965-7.966
		c4.399,0,7.968,3.566,7.968,7.966C27.867,20.4,24.3,23.967,19.899,23.967 M28.181,9.581c-1.029,0-1.861-0.834-1.861-1.861
		c0-1.028,0.832-1.861,1.861-1.861c1.027,0,1.861,0.833,1.861,1.861C30.042,8.747,29.208,9.581,28.181,9.581"/>
</g>
</svg>
