<?xml version="1.0" encoding="utf-8"?>
<!-- Generator: Adobe Illustrator 15.1.0, SVG Export Plug-In . SVG Version: 6.00 Build 0)  -->
<!DOCTYPE svg PUBLIC "-//W3C//DTD SVG 1.1//EN" "http://www.w3.org/Graphics/SVG/1.1/DTD/svg11.dtd">
<svg version="1.1" id="Layer_1" xmlns="http://www.w3.org/2000/svg" xmlns:xlink="http://www.w3.org/1999/xlink" x="0px" y="0px"
	 width="32px" height="32px" viewBox="0 0 32 32" enable-background="new 0 0 32 32" xml:space="preserve">
<title>github</title>
<path fill="#FFFFFF" d="M16,0.395c-8.836,0-16,7.163-16,16c0,7.069,4.585,13.067,10.942,15.182c0.8,0.147,1.094-0.347,1.094-0.771
	c0-0.381-0.015-1.642-0.022-2.979c-4.452,0.968-5.391-1.889-5.391-1.889c-0.728-1.849-1.776-2.34-1.776-2.34
	c-1.452-0.994,0.11-0.974,0.11-0.974c1.606,0.113,2.452,1.649,2.452,1.649c1.427,2.445,3.743,1.738,4.656,1.33
	c0.143-1.035,0.558-1.74,1.016-2.141c-3.554-0.404-7.29-1.777-7.29-7.907c0-1.747,0.625-3.174,1.649-4.295
	c-0.166-0.403-0.714-2.03,0.155-4.234c0,0,1.344-0.43,4.401,1.64c1.276-0.355,2.645-0.532,4.005-0.539
	c1.358,0.006,2.729,0.184,4.008,0.539c3.054-2.07,4.396-1.64,4.396-1.64c0.871,2.204,0.322,3.831,0.156,4.234
	c1.026,1.12,1.647,2.548,1.647,4.295c0,6.145-3.743,7.499-7.306,7.895c0.574,0.497,1.084,1.47,1.084,2.963
	c0,2.141-0.019,3.864-0.019,4.391c0,0.426,0.288,0.926,1.099,0.769C27.421,29.457,32,23.462,32,16.395
	C32,7.558,24.836,0.395,16,0.395z"/>
</svg>
