<?xml version="1.0" encoding="utf-8"?>
<!-- Generator: Adobe Illustrator 15.1.0, SVG Export Plug-In . SVG Version: 6.00 Build 0)  -->
<!DOCTYPE svg PUBLIC "-//W3C//DTD SVG 1.1//EN" "http://www.w3.org/Graphics/SVG/1.1/DTD/svg11.dtd">
<svg version="1.1" id="Layer_1" xmlns="http://www.w3.org/2000/svg" xmlns:xlink="http://www.w3.org/1999/xlink" x="0px" y="0px"
	 width="792px" height="612px" viewBox="0 0 792 612" enable-background="new 0 0 792 612" xml:space="preserve">
<path fill="#FFFFFF" d="M396.034,0C227.016,0,90,137.016,90,306.034c0,169.019,137.016,306.035,306.034,306.035
	c169.019,0,306.035-137.017,306.035-306.035C702.069,137.016,565.053,0,396.034,0z M323.32,190.332
	c9.68-10.971,26.421-12.018,37.392-2.337l35.322,35.322l35.322-35.322c10.015-8.836,25.04-8.836,35.055,0
	c10.971,9.68,12.018,26.421,2.338,37.392l-54.019,54.087c-10.337,10.297-27.055,10.297-37.392,0l-54.018-54.087
	C314.484,215.372,314.484,200.347,323.32,190.332z M507.176,331.561l-92.445,92.445c-10.345,10.343-27.116,10.343-37.461,0
	l-92.376-92.445c-0.827-0.729-1.608-1.511-2.338-2.338c-9.68-10.971-8.633-27.712,2.338-37.392
	c10.971-9.68,27.712-8.634,37.392,2.337l73.749,73.68l73.404-73.68c10.325-10.421,27.144-10.498,37.564-0.172
	C517.424,304.321,517.501,321.14,507.176,331.561z"/>
</svg>
